<mxfile host="Electron" agent="Mozilla/5.0 (Windows NT 10.0; Win64; x64) AppleWebKit/537.36 (KHTML, like Gecko) draw.io/28.2.5 Chrome/138.0.7204.251 Electron/37.6.1 Safari/537.36" version="28.2.5">
  <diagram name="Page-1" id="dFhPst_S7rwA3uoJncHg">
    <mxGraphModel dx="1226" dy="736" grid="1" gridSize="10" guides="1" tooltips="1" connect="1" arrows="1" fold="1" page="1" pageScale="1" pageWidth="850" pageHeight="1100" math="0" shadow="0">
      <root>
        <mxCell id="0" />
        <mxCell id="1" parent="0" />
        <mxCell id="uPxCHblYA37mIubjmwFk-2" style="edgeStyle=orthogonalEdgeStyle;rounded=0;orthogonalLoop=1;jettySize=auto;html=1;" parent="1" source="uPxCHblYA37mIubjmwFk-1" edge="1">
          <mxGeometry relative="1" as="geometry">
            <mxPoint x="400" y="140" as="targetPoint" />
          </mxGeometry>
        </mxCell>
        <mxCell id="uPxCHblYA37mIubjmwFk-1" value="start" style="ellipse;whiteSpace=wrap;html=1;" parent="1" vertex="1">
          <mxGeometry x="340" y="10" width="120" height="80" as="geometry" />
        </mxCell>
        <mxCell id="uPxCHblYA37mIubjmwFk-7" style="edgeStyle=orthogonalEdgeStyle;rounded=0;orthogonalLoop=1;jettySize=auto;html=1;" parent="1" source="uPxCHblYA37mIubjmwFk-4" edge="1">
          <mxGeometry relative="1" as="geometry">
            <mxPoint x="400" y="280" as="targetPoint" />
          </mxGeometry>
        </mxCell>
        <mxCell id="uPxCHblYA37mIubjmwFk-4" value="&amp;nbsp;output&lt;div&gt;&quot;==LOGIN==&quot;&lt;br&gt;&lt;div&gt;&quot;masukan nama dan password anda&quot;&lt;/div&gt;&lt;/div&gt;" style="shape=parallelogram;perimeter=parallelogramPerimeter;whiteSpace=wrap;html=1;fixedSize=1;" parent="1" vertex="1">
          <mxGeometry x="330" y="150" width="140" height="80" as="geometry" />
        </mxCell>
        <mxCell id="uPxCHblYA37mIubjmwFk-5" value="" style="endArrow=classic;html=1;rounded=0;" parent="1" edge="1">
          <mxGeometry width="50" height="50" relative="1" as="geometry">
            <mxPoint x="425" y="230" as="sourcePoint" />
            <mxPoint x="495" y="230" as="targetPoint" />
          </mxGeometry>
        </mxCell>
        <mxCell id="uPxCHblYA37mIubjmwFk-9" style="edgeStyle=orthogonalEdgeStyle;rounded=0;orthogonalLoop=1;jettySize=auto;html=1;" parent="1" source="uPxCHblYA37mIubjmwFk-8" edge="1">
          <mxGeometry relative="1" as="geometry">
            <mxPoint x="400" y="380" as="targetPoint" />
          </mxGeometry>
        </mxCell>
        <mxCell id="uPxCHblYA37mIubjmwFk-8" value="input ke-1&lt;div&gt;nama,password&amp;nbsp;&lt;/div&gt;" style="shape=parallelogram;perimeter=parallelogramPerimeter;whiteSpace=wrap;html=1;fixedSize=1;" parent="1" vertex="1">
          <mxGeometry x="340" y="280" width="120" height="60" as="geometry" />
        </mxCell>
        <mxCell id="uPxCHblYA37mIubjmwFk-37" style="edgeStyle=orthogonalEdgeStyle;rounded=0;orthogonalLoop=1;jettySize=auto;html=1;" parent="1" source="uPxCHblYA37mIubjmwFk-10" edge="1">
          <mxGeometry relative="1" as="geometry">
            <mxPoint x="400" y="690" as="targetPoint" />
          </mxGeometry>
        </mxCell>
        <mxCell id="uPxCHblYA37mIubjmwFk-10" value="&lt;br&gt;&lt;div&gt;output&lt;/div&gt;&lt;div&gt;&quot;anda berhasil login,selamat datang&quot;&lt;/div&gt;" style="shape=parallelogram;perimeter=parallelogramPerimeter;whiteSpace=wrap;html=1;fixedSize=1;" parent="1" vertex="1">
          <mxGeometry x="325" y="540" width="150" height="90" as="geometry" />
        </mxCell>
        <mxCell id="uPxCHblYA37mIubjmwFk-12" style="edgeStyle=orthogonalEdgeStyle;rounded=0;orthogonalLoop=1;jettySize=auto;html=1;" parent="1" source="uPxCHblYA37mIubjmwFk-11" edge="1">
          <mxGeometry relative="1" as="geometry">
            <mxPoint x="400" y="540" as="targetPoint" />
          </mxGeometry>
        </mxCell>
        <mxCell id="uPxCHblYA37mIubjmwFk-14" value="true" style="edgeLabel;html=1;align=center;verticalAlign=middle;resizable=0;points=[];" parent="uPxCHblYA37mIubjmwFk-12" vertex="1" connectable="0">
          <mxGeometry x="0.0776" y="-2" relative="1" as="geometry">
            <mxPoint as="offset" />
          </mxGeometry>
        </mxCell>
        <mxCell id="uPxCHblYA37mIubjmwFk-13" style="edgeStyle=orthogonalEdgeStyle;rounded=0;orthogonalLoop=1;jettySize=auto;html=1;" parent="1" source="uPxCHblYA37mIubjmwFk-11" edge="1">
          <mxGeometry relative="1" as="geometry">
            <mxPoint x="530" y="435" as="targetPoint" />
          </mxGeometry>
        </mxCell>
        <mxCell id="uPxCHblYA37mIubjmwFk-15" value="false" style="edgeLabel;html=1;align=center;verticalAlign=middle;resizable=0;points=[];" parent="uPxCHblYA37mIubjmwFk-13" vertex="1" connectable="0">
          <mxGeometry x="-0.3466" y="-1" relative="1" as="geometry">
            <mxPoint as="offset" />
          </mxGeometry>
        </mxCell>
        <mxCell id="uPxCHblYA37mIubjmwFk-11" value="nama=erfandi&lt;div&gt;password=123&lt;/div&gt;" style="rhombus;whiteSpace=wrap;html=1;" parent="1" vertex="1">
          <mxGeometry x="332.5" y="380" width="135" height="110" as="geometry" />
        </mxCell>
        <mxCell id="uPxCHblYA37mIubjmwFk-17" style="edgeStyle=orthogonalEdgeStyle;rounded=0;orthogonalLoop=1;jettySize=auto;html=1;" parent="1" source="uPxCHblYA37mIubjmwFk-16" edge="1">
          <mxGeometry relative="1" as="geometry">
            <mxPoint x="690" y="435" as="targetPoint" />
          </mxGeometry>
        </mxCell>
        <mxCell id="uPxCHblYA37mIubjmwFk-24" value="false" style="edgeLabel;html=1;align=center;verticalAlign=middle;resizable=0;points=[];" parent="uPxCHblYA37mIubjmwFk-17" vertex="1" connectable="0">
          <mxGeometry x="0.0039" relative="1" as="geometry">
            <mxPoint as="offset" />
          </mxGeometry>
        </mxCell>
        <mxCell id="uPxCHblYA37mIubjmwFk-16" value="input ke-2&lt;div&gt;nama,password&amp;nbsp;&lt;/div&gt;" style="shape=parallelogram;perimeter=parallelogramPerimeter;whiteSpace=wrap;html=1;fixedSize=1;" parent="1" vertex="1">
          <mxGeometry x="520" y="405" width="120" height="60" as="geometry" />
        </mxCell>
        <mxCell id="uPxCHblYA37mIubjmwFk-19" value="" style="endArrow=none;html=1;rounded=0;" parent="1" edge="1">
          <mxGeometry width="50" height="50" relative="1" as="geometry">
            <mxPoint x="580" y="590" as="sourcePoint" />
            <mxPoint x="580" y="465" as="targetPoint" />
          </mxGeometry>
        </mxCell>
        <mxCell id="uPxCHblYA37mIubjmwFk-21" value="true" style="edgeLabel;html=1;align=center;verticalAlign=middle;resizable=0;points=[];" parent="uPxCHblYA37mIubjmwFk-19" vertex="1" connectable="0">
          <mxGeometry x="0.3888" y="2" relative="1" as="geometry">
            <mxPoint as="offset" />
          </mxGeometry>
        </mxCell>
        <mxCell id="uPxCHblYA37mIubjmwFk-20" value="" style="endArrow=classic;html=1;rounded=0;" parent="1" target="uPxCHblYA37mIubjmwFk-10" edge="1">
          <mxGeometry width="50" height="50" relative="1" as="geometry">
            <mxPoint x="580" y="590" as="sourcePoint" />
            <mxPoint x="630" y="540" as="targetPoint" />
            <Array as="points">
              <mxPoint x="520" y="590" />
            </Array>
          </mxGeometry>
        </mxCell>
        <mxCell id="uPxCHblYA37mIubjmwFk-22" value="input ke-3&lt;div&gt;nama,password&amp;nbsp;&lt;/div&gt;" style="shape=parallelogram;perimeter=parallelogramPerimeter;whiteSpace=wrap;html=1;fixedSize=1;" parent="1" vertex="1">
          <mxGeometry x="680" y="405" width="120" height="60" as="geometry" />
        </mxCell>
        <mxCell id="uPxCHblYA37mIubjmwFk-29" value="" style="endArrow=none;html=1;rounded=0;" parent="1" edge="1">
          <mxGeometry width="50" height="50" relative="1" as="geometry">
            <mxPoint x="740" y="590" as="sourcePoint" />
            <mxPoint x="740" y="470" as="targetPoint" />
          </mxGeometry>
        </mxCell>
        <mxCell id="uPxCHblYA37mIubjmwFk-31" value="true" style="edgeLabel;html=1;align=center;verticalAlign=middle;resizable=0;points=[];" parent="uPxCHblYA37mIubjmwFk-29" vertex="1" connectable="0">
          <mxGeometry x="0.3118" y="-4" relative="1" as="geometry">
            <mxPoint as="offset" />
          </mxGeometry>
        </mxCell>
        <mxCell id="uPxCHblYA37mIubjmwFk-30" value="" style="endArrow=none;html=1;rounded=0;" parent="1" edge="1">
          <mxGeometry width="50" height="50" relative="1" as="geometry">
            <mxPoint x="580" y="590" as="sourcePoint" />
            <mxPoint x="740" y="590" as="targetPoint" />
          </mxGeometry>
        </mxCell>
        <mxCell id="uPxCHblYA37mIubjmwFk-32" value="" style="endArrow=none;html=1;rounded=0;" parent="1" edge="1">
          <mxGeometry width="50" height="50" relative="1" as="geometry">
            <mxPoint x="790" y="440" as="sourcePoint" />
            <mxPoint x="850" y="440" as="targetPoint" />
          </mxGeometry>
        </mxCell>
        <mxCell id="uPxCHblYA37mIubjmwFk-36" value="false" style="edgeLabel;html=1;align=center;verticalAlign=middle;resizable=0;points=[];" parent="uPxCHblYA37mIubjmwFk-32" vertex="1" connectable="0">
          <mxGeometry x="-0.0353" y="-3" relative="1" as="geometry">
            <mxPoint as="offset" />
          </mxGeometry>
        </mxCell>
        <mxCell id="uPxCHblYA37mIubjmwFk-33" value="" style="endArrow=none;html=1;rounded=0;" parent="1" edge="1">
          <mxGeometry width="50" height="50" relative="1" as="geometry">
            <mxPoint x="850" y="440" as="sourcePoint" />
            <mxPoint x="850" y="190" as="targetPoint" />
          </mxGeometry>
        </mxCell>
        <mxCell id="uPxCHblYA37mIubjmwFk-34" value="" style="endArrow=classic;html=1;rounded=0;" parent="1" target="uPxCHblYA37mIubjmwFk-4" edge="1">
          <mxGeometry width="50" height="50" relative="1" as="geometry">
            <mxPoint x="850" y="190" as="sourcePoint" />
            <mxPoint x="900" y="140" as="targetPoint" />
          </mxGeometry>
        </mxCell>
        <mxCell id="uPxCHblYA37mIubjmwFk-35" value="output&lt;div&gt;anda telah tiga kali gagal login,program dihentikan.&lt;/div&gt;" style="shape=parallelogram;perimeter=parallelogramPerimeter;whiteSpace=wrap;html=1;fixedSize=1;" parent="1" vertex="1">
          <mxGeometry x="750" y="180" width="160" height="70" as="geometry" />
        </mxCell>
        <mxCell id="uPxCHblYA37mIubjmwFk-41" style="edgeStyle=orthogonalEdgeStyle;rounded=0;orthogonalLoop=1;jettySize=auto;html=1;" parent="1" source="uPxCHblYA37mIubjmwFk-38" edge="1">
          <mxGeometry relative="1" as="geometry">
            <mxPoint x="400" y="900" as="targetPoint" />
          </mxGeometry>
        </mxCell>
        <mxCell id="uPxCHblYA37mIubjmwFk-38" value="DAFTAR MENU SATWA KEBUN BINATANG&lt;div&gt;&lt;br&gt;&lt;/div&gt;&lt;div&gt;1. DAFTAR HEWAN&lt;/div&gt;&lt;div&gt;2.HAPUS DAFTAR HEWAN&lt;/div&gt;&lt;div&gt;3.UPDATE INFO HEWAN&lt;/div&gt;&lt;div&gt;4.KELUAR PROGRAM&lt;/div&gt;&lt;div&gt;&lt;br&gt;&lt;/div&gt;" style="shape=parallelogram;perimeter=parallelogramPerimeter;whiteSpace=wrap;html=1;fixedSize=1;" parent="1" vertex="1">
          <mxGeometry x="265" y="660" width="270" height="180" as="geometry" />
        </mxCell>
        <mxCell id="uPxCHblYA37mIubjmwFk-43" style="edgeStyle=orthogonalEdgeStyle;rounded=0;orthogonalLoop=1;jettySize=auto;html=1;" parent="1" source="uPxCHblYA37mIubjmwFk-42" edge="1">
          <mxGeometry relative="1" as="geometry">
            <mxPoint x="400" y="1040" as="targetPoint" />
          </mxGeometry>
        </mxCell>
        <mxCell id="uPxCHblYA37mIubjmwFk-42" value="INPUT&lt;div&gt;admin_pilihMenu&lt;/div&gt;" style="shape=parallelogram;perimeter=parallelogramPerimeter;whiteSpace=wrap;html=1;fixedSize=1;" parent="1" vertex="1">
          <mxGeometry x="315" y="910" width="170" height="80" as="geometry" />
        </mxCell>
        <mxCell id="uPxCHblYA37mIubjmwFk-46" style="edgeStyle=orthogonalEdgeStyle;rounded=0;orthogonalLoop=1;jettySize=auto;html=1;" parent="1" source="uPxCHblYA37mIubjmwFk-44" edge="1">
          <mxGeometry relative="1" as="geometry">
            <mxPoint x="410" y="1240" as="targetPoint" />
          </mxGeometry>
        </mxCell>
        <mxCell id="uPxCHblYA37mIubjmwFk-47" value="true" style="edgeLabel;html=1;align=center;verticalAlign=middle;resizable=0;points=[];" parent="uPxCHblYA37mIubjmwFk-46" vertex="1" connectable="0">
          <mxGeometry x="-0.3059" y="2" relative="1" as="geometry">
            <mxPoint as="offset" />
          </mxGeometry>
        </mxCell>
        <mxCell id="uPxCHblYA37mIubjmwFk-49" style="edgeStyle=orthogonalEdgeStyle;rounded=0;orthogonalLoop=1;jettySize=auto;html=1;entryX=0;entryY=0.5;entryDx=0;entryDy=0;" parent="1" source="uPxCHblYA37mIubjmwFk-44" target="uPxCHblYA37mIubjmwFk-51" edge="1">
          <mxGeometry relative="1" as="geometry">
            <mxPoint x="560" y="1115" as="targetPoint" />
          </mxGeometry>
        </mxCell>
        <mxCell id="uPxCHblYA37mIubjmwFk-72" value="false" style="edgeLabel;html=1;align=center;verticalAlign=middle;resizable=0;points=[];" parent="uPxCHblYA37mIubjmwFk-49" vertex="1" connectable="0">
          <mxGeometry x="-0.2635" relative="1" as="geometry">
            <mxPoint as="offset" />
          </mxGeometry>
        </mxCell>
        <mxCell id="uPxCHblYA37mIubjmwFk-44" value="&lt;div&gt;&amp;nbsp;if&lt;/div&gt;&lt;div&gt;admin_pilihMenu==&lt;/div&gt;&lt;div&gt;&quot;1&quot;&lt;/div&gt;" style="rhombus;whiteSpace=wrap;html=1;" parent="1" vertex="1">
          <mxGeometry x="340" y="1050" width="140" height="130" as="geometry" />
        </mxCell>
        <mxCell id="uPxCHblYA37mIubjmwFk-48" value="output/input&lt;br&gt;&lt;div&gt;nama hewan&lt;/div&gt;&lt;div&gt;&lt;br&gt;&lt;/div&gt;&lt;div&gt;&lt;br&gt;&lt;/div&gt;" style="shape=parallelogram;perimeter=parallelogramPerimeter;whiteSpace=wrap;html=1;fixedSize=1;" parent="1" vertex="1">
          <mxGeometry x="328.75" y="1240" width="162.5" height="90" as="geometry" />
        </mxCell>
        <mxCell id="uPxCHblYA37mIubjmwFk-54" style="edgeStyle=orthogonalEdgeStyle;rounded=0;orthogonalLoop=1;jettySize=auto;html=1;" parent="1" source="uPxCHblYA37mIubjmwFk-51" edge="1">
          <mxGeometry relative="1" as="geometry">
            <mxPoint x="820" y="1115" as="targetPoint" />
          </mxGeometry>
        </mxCell>
        <mxCell id="uPxCHblYA37mIubjmwFk-87" value="false" style="edgeLabel;html=1;align=center;verticalAlign=middle;resizable=0;points=[];" parent="uPxCHblYA37mIubjmwFk-54" vertex="1" connectable="0">
          <mxGeometry x="0.0188" relative="1" as="geometry">
            <mxPoint as="offset" />
          </mxGeometry>
        </mxCell>
        <mxCell id="uPxCHblYA37mIubjmwFk-55" style="edgeStyle=orthogonalEdgeStyle;rounded=0;orthogonalLoop=1;jettySize=auto;html=1;entryX=0.5;entryY=0;entryDx=0;entryDy=0;" parent="1" source="uPxCHblYA37mIubjmwFk-51" target="uPxCHblYA37mIubjmwFk-53" edge="1">
          <mxGeometry relative="1" as="geometry" />
        </mxCell>
        <mxCell id="uPxCHblYA37mIubjmwFk-69" value="true" style="edgeLabel;html=1;align=center;verticalAlign=middle;resizable=0;points=[];" parent="uPxCHblYA37mIubjmwFk-55" vertex="1" connectable="0">
          <mxGeometry x="-0.3176" relative="1" as="geometry">
            <mxPoint as="offset" />
          </mxGeometry>
        </mxCell>
        <mxCell id="uPxCHblYA37mIubjmwFk-51" value="&lt;div&gt;&amp;nbsp;elif&lt;/div&gt;&lt;div&gt;admin_pilihMenu==&lt;/div&gt;&lt;div&gt;&quot;2&quot;&lt;/div&gt;" style="rhombus;whiteSpace=wrap;html=1;" parent="1" vertex="1">
          <mxGeometry x="580" y="1050" width="140" height="130" as="geometry" />
        </mxCell>
        <mxCell id="uPxCHblYA37mIubjmwFk-53" value="input&lt;div&gt;&lt;br&gt;&lt;/div&gt;&lt;div&gt;menghapus=&lt;/div&gt;" style="shape=parallelogram;perimeter=parallelogramPerimeter;whiteSpace=wrap;html=1;fixedSize=1;" parent="1" vertex="1">
          <mxGeometry x="568.75" y="1240" width="162.5" height="90" as="geometry" />
        </mxCell>
        <mxCell id="uPxCHblYA37mIubjmwFk-57" style="edgeStyle=orthogonalEdgeStyle;rounded=0;orthogonalLoop=1;jettySize=auto;html=1;" parent="1" source="uPxCHblYA37mIubjmwFk-56" edge="1">
          <mxGeometry relative="1" as="geometry">
            <mxPoint x="890" y="1240" as="targetPoint" />
          </mxGeometry>
        </mxCell>
        <mxCell id="uPxCHblYA37mIubjmwFk-70" value="true" style="edgeLabel;html=1;align=center;verticalAlign=middle;resizable=0;points=[];" parent="uPxCHblYA37mIubjmwFk-57" vertex="1" connectable="0">
          <mxGeometry x="-0.0039" y="1" relative="1" as="geometry">
            <mxPoint as="offset" />
          </mxGeometry>
        </mxCell>
        <mxCell id="uPxCHblYA37mIubjmwFk-62" style="edgeStyle=orthogonalEdgeStyle;rounded=0;orthogonalLoop=1;jettySize=auto;html=1;" parent="1" source="uPxCHblYA37mIubjmwFk-56" edge="1">
          <mxGeometry relative="1" as="geometry">
            <mxPoint x="1050" y="1115" as="targetPoint" />
          </mxGeometry>
        </mxCell>
        <mxCell id="uPxCHblYA37mIubjmwFk-88" value="false" style="edgeLabel;html=1;align=center;verticalAlign=middle;resizable=0;points=[];" parent="uPxCHblYA37mIubjmwFk-62" vertex="1" connectable="0">
          <mxGeometry x="-0.1033" y="-4" relative="1" as="geometry">
            <mxPoint as="offset" />
          </mxGeometry>
        </mxCell>
        <mxCell id="uPxCHblYA37mIubjmwFk-56" value="&lt;div&gt;&amp;nbsp;elif&lt;/div&gt;&lt;div&gt;admin_pilihMenu==&lt;/div&gt;&lt;div&gt;&quot;3&quot;&lt;/div&gt;" style="rhombus;whiteSpace=wrap;html=1;" parent="1" vertex="1">
          <mxGeometry x="820" y="1050" width="140" height="130" as="geometry" />
        </mxCell>
        <mxCell id="uPxCHblYA37mIubjmwFk-59" value="input&lt;div&gt;nama hewan_baru&lt;/div&gt;" style="shape=parallelogram;perimeter=parallelogramPerimeter;whiteSpace=wrap;html=1;fixedSize=1;" parent="1" vertex="1">
          <mxGeometry x="808.75" y="1250" width="162.5" height="90" as="geometry" />
        </mxCell>
        <mxCell id="uPxCHblYA37mIubjmwFk-66" style="edgeStyle=orthogonalEdgeStyle;rounded=0;orthogonalLoop=1;jettySize=auto;html=1;entryX=0;entryY=0.5;entryDx=0;entryDy=0;" parent="1" source="uPxCHblYA37mIubjmwFk-61" edge="1">
          <mxGeometry relative="1" as="geometry">
            <mxPoint x="1280" y="1115" as="targetPoint" />
          </mxGeometry>
        </mxCell>
        <mxCell id="uPxCHblYA37mIubjmwFk-89" value="false" style="edgeLabel;html=1;align=center;verticalAlign=middle;resizable=0;points=[];" parent="uPxCHblYA37mIubjmwFk-66" vertex="1" connectable="0">
          <mxGeometry x="-0.05" y="-2" relative="1" as="geometry">
            <mxPoint as="offset" />
          </mxGeometry>
        </mxCell>
        <mxCell id="uPxCHblYA37mIubjmwFk-75" style="edgeStyle=orthogonalEdgeStyle;rounded=0;orthogonalLoop=1;jettySize=auto;html=1;entryX=0.5;entryY=0;entryDx=0;entryDy=0;" parent="1" source="uPxCHblYA37mIubjmwFk-61" target="uPxCHblYA37mIubjmwFk-64" edge="1">
          <mxGeometry relative="1" as="geometry" />
        </mxCell>
        <mxCell id="uPxCHblYA37mIubjmwFk-76" value="true" style="edgeLabel;html=1;align=center;verticalAlign=middle;resizable=0;points=[];" parent="uPxCHblYA37mIubjmwFk-75" vertex="1" connectable="0">
          <mxGeometry x="-0.079" relative="1" as="geometry">
            <mxPoint as="offset" />
          </mxGeometry>
        </mxCell>
        <mxCell id="uPxCHblYA37mIubjmwFk-61" value="&lt;div&gt;eliif&lt;/div&gt;&lt;div&gt;admin_pilihMenu==&lt;/div&gt;&lt;div&gt;&quot;4&quot;&lt;/div&gt;" style="rhombus;whiteSpace=wrap;html=1;" parent="1" vertex="1">
          <mxGeometry x="1060" y="1050" width="140" height="130" as="geometry" />
        </mxCell>
        <mxCell id="uPxCHblYA37mIubjmwFk-64" value="&lt;div&gt;output&lt;/div&gt;&lt;div&gt;KELUAR PROGRAM&lt;/div&gt;" style="shape=parallelogram;perimeter=parallelogramPerimeter;whiteSpace=wrap;html=1;fixedSize=1;" parent="1" vertex="1">
          <mxGeometry x="1048.75" y="1250" width="162.5" height="90" as="geometry" />
        </mxCell>
        <mxCell id="uPxCHblYA37mIubjmwFk-92" value="&quot;pilihan tidak valid&quot;" style="shape=parallelogram;perimeter=parallelogramPerimeter;whiteSpace=wrap;html=1;fixedSize=1;" parent="1" vertex="1">
          <mxGeometry x="1275" y="1080" width="120" height="60" as="geometry" />
        </mxCell>
        <mxCell id="uPxCHblYA37mIubjmwFk-94" value="" style="endArrow=none;html=1;rounded=0;" parent="1" edge="1">
          <mxGeometry width="50" height="50" relative="1" as="geometry">
            <mxPoint x="1340" y="1080" as="sourcePoint" />
            <mxPoint x="1340" y="710" as="targetPoint" />
          </mxGeometry>
        </mxCell>
        <mxCell id="uPxCHblYA37mIubjmwFk-96" value="" style="endArrow=classic;html=1;rounded=0;entryX=1;entryY=0.25;entryDx=0;entryDy=0;" parent="1" target="uPxCHblYA37mIubjmwFk-38" edge="1">
          <mxGeometry width="50" height="50" relative="1" as="geometry">
            <mxPoint x="1340" y="710" as="sourcePoint" />
            <mxPoint x="1890" y="670" as="targetPoint" />
          </mxGeometry>
        </mxCell>
        <mxCell id="uPxCHblYA37mIubjmwFk-98" value="" style="endArrow=none;html=1;rounded=0;" parent="1" edge="1">
          <mxGeometry width="50" height="50" relative="1" as="geometry">
            <mxPoint x="400" y="1430" as="sourcePoint" />
            <mxPoint x="1130" y="1430" as="targetPoint" />
          </mxGeometry>
        </mxCell>
        <mxCell id="uPxCHblYA37mIubjmwFk-99" value="" style="endArrow=classic;html=1;rounded=0;" parent="1" edge="1">
          <mxGeometry width="50" height="50" relative="1" as="geometry">
            <mxPoint x="400" y="1430" as="sourcePoint" />
            <mxPoint x="400" y="1530" as="targetPoint" />
          </mxGeometry>
        </mxCell>
        <mxCell id="uPxCHblYA37mIubjmwFk-100" value="end" style="ellipse;whiteSpace=wrap;html=1;" parent="1" vertex="1">
          <mxGeometry x="340" y="1540" width="120" height="80" as="geometry" />
        </mxCell>
        <mxCell id="kWU4KM6xFrOA-AWe_in7-3" value="" style="endArrow=none;html=1;rounded=0;" edge="1" parent="1">
          <mxGeometry width="50" height="50" relative="1" as="geometry">
            <mxPoint x="1129" y="1430" as="sourcePoint" />
            <mxPoint x="1129.29" y="1340" as="targetPoint" />
          </mxGeometry>
        </mxCell>
      </root>
    </mxGraphModel>
  </diagram>
</mxfile>
